<?xml version="1.0" encoding="UTF-8" standalone="no"?>
<!-- Created with Inkscape (http://www.inkscape.org/) -->

<svg
   xmlns:dc="http://purl.org/dc/elements/1.1/"
   xmlns:cc="http://creativecommons.org/ns#"
   xmlns:rdf="http://www.w3.org/1999/02/22-rdf-syntax-ns#"
   xmlns:svg="http://www.w3.org/2000/svg"
   xmlns="http://www.w3.org/2000/svg"
   xmlns:sodipodi="http://sodipodi.sourceforge.net/DTD/sodipodi-0.dtd"
   xmlns:inkscape="http://www.inkscape.org/namespaces/inkscape"
   id="Half Life 2 logo"
   version="1.1"
   inkscape:version="0.48.1 "
   width="256"
   height="256"
   sodipodi:docname="Half Life 2 logo.svg"
   style="display:inline"
   inkscape:export-filename="C:\Users\Slava\Pictures\Half Life 2 logo.png"
   inkscape:export-xdpi="90"
   inkscape:export-ydpi="90">
  <metadata
     id="metadata">
    <rdf:RDF>
      <cc:Work
         rdf:about="">
        <dc:format>image/svg+xml</dc:format>
        <dc:type
           rdf:resource="http://purl.org/dc/dcmitype/StillImage" />
        <dc:title></dc:title>
      </cc:Work>
    </rdf:RDF>
  </metadata>
  <defs
     id="defs">
    <inkscape:perspective
       sodipodi:type="inkscape:persp3d"
       inkscape:vp_x="0 : 0.5 : 1"
       inkscape:vp_y="0 : 1000 : 0"
       inkscape:vp_z="1 : 0.5 : 1"
       inkscape:persp3d-origin="0.5 : 0.33333333 : 1"
       id="perspective10" />
    <filter
       inkscape:collect="always"
       id="filter3701"
       color-interpolation-filters="sRGB">
      <feGaussianBlur
         inkscape:collect="always"
         stdDeviation="0.52146311"
         id="feGaussianBlur3703" />
    </filter>
    <filter
       inkscape:collect="always"
       id="filter10192">
      <feGaussianBlur
         inkscape:collect="always"
         stdDeviation="0.39039062"
         id="feGaussianBlur10194" />
    </filter>
  </defs>
  <sodipodi:namedview
     pagecolor="#ffffff"
     bordercolor="#666666"
     borderopacity="1"
     objecttolerance="10"
     gridtolerance="10"
     guidetolerance="10"
     inkscape:pageopacity="0"
     inkscape:pageshadow="2"
     inkscape:window-width="1920"
     inkscape:window-height="1018"
     id="namedview4"
     showgrid="false"
     inkscape:zoom="1"
     inkscape:cx="-20.157974"
     inkscape:cy="125.93575"
     inkscape:window-x="-8"
     inkscape:window-y="-8"
     inkscape:window-maximized="1"
     inkscape:current-layer="layer1" />
  <g
     inkscape:groupmode="layer"
     id="layer1"
     inkscape:label=""
     style="display:inline">
    <path
       style="fill:#434344;fill-opacity:1;stroke:none;filter:url(#filter3701);opacity:1"
       d="m 206.35501,166.66878 c 29.61008,-68.917129 39.41202,-91.665603 39.41202,-99.433279 0,-9.30028 -4.95171,-17.901662 -12.10772,-23.310182 C 225.0208,37.396322 226.92415,37.583948 167,37.354242 c -59.92415,-0.229706 2.61589,-0.331643 -50.40345,-0.331643 -53.019343,0 -96.000007,42.980664 -96.000007,96.000001 0,53.01933 42.980664,96 96.000007,96 53.01933,0 76.62305,-34.74239 89.75846,-62.35382 z"
       id="path3616"
       inkscape:connector-curvature="0" />
    <path
       style="fill:#cd970c;fill-opacity:1;stroke:none"
       d="m 221.82802,91.496706 c 0,0 -0.0119,-6.479757 -0.0119,-6.479757 l -15.97114,-0.0678 c 2.16999,-2.773209 18.81233,-16.8044 15.93312,-30.421974 -1.78991,-4.97824 -7.12145,-7.403441 -13.21984,-7.285897 -6.0984,0.117545 -11.94669,3.591396 -11.71925,12.851939 l 9.12145,0.03493 c 0,0 -0.80788,-5.940745 3.56053,-6.597667 2.58539,0.498387 3.67076,2.203315 3.58984,5.131685 -0.0115,3.169201 -2.55017,7.163259 -8.51186,14.622278 -5.18873,6.491921 -6.56504,8.103628 -7.78538,10.795198 -0.18372,2.175269 0.15272,7.28211 0.15272,7.28211 0,0 24.86174,0.134952 24.86174,0.134952 l -3e-5,3e-6 z"
       id="path3600"
       inkscape:connector-curvature="0" />
    <path
       style="fill:#cd970c;fill-opacity:1;stroke:none"
       d="m 116.75,55.1875 c -42.834839,0 -77.5625,34.727674 -77.5625,77.5625 0,42.83483 34.727661,77.5625 77.5625,77.5625 42.83483,0 77.5625,-34.72767 77.5625,-77.5625 0,-42.834826 -34.72767,-77.5625 -77.5625,-77.5625 z m 1.40625,20.6875 32.25,83.1875 14.78125,-3.8125 5.03125,15.9375 -31.3125,9.03125 -19.71875,-50.75 L 89,176.53125 67.4375,176.375 l 42.5,-71.28125 -5.25,-12.84375 -13.5,-0.15625 -0.125,-15.84375 27.09375,-0.375 z"
       id="path3614"
       inkscape:connector-curvature="0" />
    <path
       style="opacity:0.13;fill:#ffffff;fill-opacity:1;stroke:none;filter:url(#filter10192)"
       d="m 116.59375,37.03125 c -43.657972,0 -80.503985,29.137975 -92.15625,69.03125 24.527505,12.63114 57.037824,20.845 99.625,21.9375 50.91059,-1.60205 85.38685,-9.73631 108.78125,-23.46875 9.26868,-22.295957 12.9375,-32.609363 12.9375,-37.28125 0,-9.30028 -4.96899,-17.90398 -12.125,-23.3125 -8.63851,-6.528997 -6.7321,-6.364044 -66.65625,-6.59375 -59.92415,-0.229706 2.61309,-0.3125 -50.40625,-0.3125 z"
       id="path3605"
       inkscape:connector-curvature="0" />
  </g>
</svg>
